# xmcd
#
# Track frame offsets: 
#        150
#        21992
#        43048
#        62592
#        83184
#        108757
#        131650
#        146081
#        165096
#        184899
#        204397
#        227568
#        248789
#        272248
#        290841
#        309583
#        326355
#        339600
#
# Disc length: 4770 seconds
#
# Revision: 0
# Processed by: cddbd v1.5.2PL0 Copyright (c) Steve Scherf et al.
# Submitted via: ExactAudioCopy v0.99pb5
#
DISCID=0412a012
DTITLE=Кабриолет - Лучшее
DYEAR=2008
DGENRE=National Folk
TTITLE0=Цепи
TTITLE1=Малыш
TTITLE2=Конь мой вороной
TTITLE3=Не ругай меня мама
TTITLE4=Грешен
TTITLE5=Я тобою околдован
TTITLE6=Я тебя не ревную
TTITLE7=В армию иду
TTITLE8=Она сэра
TTITLE9=Госпожа игла
TTITLE10=Ай-лавью
TTITLE11=Розы
TTITLE12=Без тебя одинок
TTITLE13=Убегу
TTITLE14=Белая роза
TTITLE15=Эмели
TTITLE16=А без денег жить нельзя
TTITLE17=Ты мне подари судьба
EXTD=
EXTT0=
EXTT1=
EXTT2=
EXTT3=
EXTT4=
EXTT5=
EXTT6=
EXTT7=
EXTT8=
EXTT9=
EXTT10=
EXTT11=
EXTT12=
EXTT13=
EXTT14=
EXTT15=
EXTT16=
EXTT17=
PLAYORDER=
